<svg id="visual" viewBox="0 0 960 540" width="960" height="540" xmlns="http://www.w3.org/2000/svg" xmlns:xlink="http://www.w3.org/1999/xlink" version="1.1"><rect x="0" y="0" width="960" height="540" fill="#002233"></rect><path d="M0 383L22.8 393.8C45.7 404.7 91.3 426.3 137 423.2C182.7 420 228.3 392 274 376.5C319.7 361 365.3 358 411.2 373C457 388 503 421 548.8 434C594.7 447 640.3 440 686 428.2C731.7 416.3 777.3 399.7 823 395.8C868.7 392 914.3 401 937.2 405.5L960 410L960 541L937.2 541C914.3 541 868.7 541 823 541C777.3 541 731.7 541 686 541C640.3 541 594.7 541 548.8 541C503 541 457 541 411.2 541C365.3 541 319.7 541 274 541C228.3 541 182.7 541 137 541C91.3 541 45.7 541 22.8 541L0 541Z" fill="#0066FF" stroke-linecap="round" stroke-linejoin="miter"></path></svg>