<svg id="visual" viewBox="0 0 900 450" width="900" height="450" xmlns="http://www.w3.org/2000/svg" xmlns:xlink="http://www.w3.org/1999/xlink" version="1.1"><path d="M0 319L21.5 328C43 337 86 355 128.8 352.5C171.7 350 214.3 327 257.2 314C300 301 343 298 385.8 310.3C428.7 322.7 471.3 350.3 514.2 361.3C557 372.3 600 366.7 642.8 356.8C685.7 347 728.3 333 771.2 329.8C814 326.7 857 334.3 878.5 338.2L900 342L900 451L878.5 451C857 451 814 451 771.2 451C728.3 451 685.7 451 642.8 451C600 451 557 451 514.2 451C471.3 451 428.7 451 385.8 451C343 451 300 451 257.2 451C214.3 451 171.7 451 128.8 451C86 451 43 451 21.5 451L0 451Z" fill="#0066FF" stroke-linecap="round" stroke-linejoin="miter"></path></svg>